<svg height="512pt" viewBox="-111 0 512 512" width="512pt" xmlns="http://www.w3.org/2000/svg"><path d="m129.789062 95.480469c-.015624 0-.03125 0-.046874 0h-74.453126c-.015624 0-.03125 0-.046874 0 .507812 20.15625 16.996093 36.339843 37.273437 36.339843s36.765625-16.183593 37.273437-36.339843zm0 0"/><path d="m55.289062 84.96875h74.453126c5.808593 0 10.511718-4.707031 10.511718-10.515625 0-5.804687-4.703125-10.511719-10.511718-10.511719h-4.515626c.566407-8.019531 3.535157-50.066406 4.035157-57.132812.261719-3.679688-2.65625-6.808594-6.347657-6.808594h-60.800781c-3.6875 0-6.605469 3.128906-6.34375 6.808594.433594 6.164062 3.535157 50.0625 4.03125 57.132812h-4.511719c-5.808593 0-10.515624 4.707032-10.515624 10.511719 0 5.808594 4.707031 10.515625 10.515624 10.515625zm0 0"/><path d="m250.503906 180.109375.15625.914063c6.492188-7.300782 6.445313-18.476563-.382812-25.71875-7.222656-7.652344-19.28125-8.007813-26.9375-.785157l-7.605469 7.175781 4.101563-1.132812c13.910156-3.84375 28.234374 5.066406 30.667968 19.546875zm0 0"/><path d="m81.894531 493.378906c-12.242187 12.242188-29.71875 3.226563-29.722656-11.15625 26.003906-225.859375-24.800781 213.894532 26.410156-229.179687l-33.3125 11.960937c-.042969 36.394532-.261719 219.183594-.269531 225.320313 0 11.972656 9.703125 21.675781 21.675781 21.675781 11.96875 0 21.671875-9.703125 21.671875-21.675781v-3.152344l-.125-.125zm0 0"/><path d="m132.648438 487.046875-6.328126 6.332031c-7.589843 7.589844-19.21875 8.617188-27.925781 3.066406 2.644531 8.988282 10.949219 15.554688 20.792969 15.554688 10.476562 0 19.214844-7.433594 21.234375-17.3125-1.515625-1.277344-1.457031-1.375-7.773437-7.640625zm0 0"/><path d="m174.867188 172.980469-8.601563-10.285157c-9.832031-11.753906-24.257813-18.496093-39.578125-18.496093h-8.148438c-.054687.351562-1.328124 8.675781-3.734374 19.054687-1.082032 4.683594-2.398438 9.78125-3.9375 14.75 5.820312 1.304688 11.207031 4.191406 15.515624 8.363282 3.957032-1.089844 43.0625-11.890626 48.484376-13.386719zm0 0"/><path d="m108.175781 158.09375v-13.796875c0-.042969-.015625-.078125-.015625-.117187-.089844-1.769532-2.085937-2.796876-3.578125-1.78125-.457031.3125-7.1875 4.898437-9.839843 6.703124-1.09375.746094-2.53125.746094-3.625 0-.933594-.632812-8.539063-5.816406-9.839844-6.703124-1.492188-1.015626-3.484375.011718-3.574219 1.78125-.003906.039062-.019531.074218-.019531.117187v13.796875c0 1.84375 2.066406 2.9375 3.59375 1.898438l9.835937-6.707032c1.097657-.742187 2.535157-.742187 3.628907 0l9.839843 6.707032c1.527344 1.039062 3.59375-.054688 3.59375-1.898438zm0 0"/><path d="m97.488281 168.382812c0 2.515626-2.039062 4.554688-4.558593 4.554688-2.515626 0-4.554688-2.039062-4.554688-4.554688 0-2.519531 2.039062-4.558593 4.554688-4.558593 2.519531 0 4.558593 2.039062 4.558593 4.558593zm0 0"/><path d="m219.332031 87.164062 3.417969 1.867188c.355469.195312.648438.488281.84375.84375l1.867188 3.414062c.804687 1.472657 2.917968 1.472657 3.722656 0l1.867187-3.414062c.195313-.355469.488281-.648438.84375-.84375l3.417969-1.867188c1.472656-.808593 1.472656-2.921874 0-3.726562l-3.417969-1.867188c-.355469-.195312-.648437-.488281-.84375-.84375l-1.867187-3.414062c-.804688-1.472656-2.917969-1.472656-3.722656 0l-1.867188 3.414062c-.195312.355469-.488281.648438-.84375.84375l-3.417969 1.867188c-1.472656.804688-1.472656 2.917969 0 3.726562zm0 0"/><path d="m162.03125 62.160156 6.84375 3.738282c.644531.355468 1.175781.886718 1.53125 1.53125l3.742188 6.84375c1.460937 2.671874 5.296874 2.671874 6.757812 0l3.742188-6.84375c.355468-.644532.886718-1.175782 1.53125-1.53125l6.839843-3.738282c2.675781-1.460937 2.675781-5.300781 0-6.761718l-6.839843-3.742188c-.644532-.351562-1.175782-.882812-1.53125-1.53125l-3.742188-6.839844c-1.460938-2.671875-5.296875-2.671875-6.757812 0l-3.742188 6.839844c-.355469.648438-.886719 1.179688-1.53125 1.53125l-6.84375 3.742188c-2.667969 1.460937-2.667969 5.300781 0 6.761718zm0 0"/><path d="m237.082031 38.792969 2.40625 1.316406c.320313.175781.585938.441406.765625.765625l1.3125 2.402344c.730469 1.335937 2.648438 1.335937 3.378906 0l1.316407-2.402344c.175781-.324219.441406-.589844.765625-.765625l2.402344-1.316406c1.335937-.730469 1.335937-2.648438 0-3.378907l-2.402344-1.3125c-.324219-.179687-.589844-.445312-.765625-.769531l-1.316407-2.402343c-.730468-1.335938-2.648437-1.335938-3.378906 0l-1.3125 2.402343c-.179687.324219-.445312.589844-.765625.769531l-2.40625 1.3125c-1.335937.730469-1.335937 2.648438 0 3.378907zm0 0"/><path d="m238.71875 182.089844c-1.234375-7.332032-8.539062-11.988282-15.703125-10.007813l-89.464844 24.703125c7.453125 17.335938-1.382812 37.023438-18.78125 43.269532l-23.636719 8.484374-27.007812 233.679688c0 3.648438 4.46875 7.5625 9.320312 2.710938l7.347657-7.351563c4.105469-4.101563 10.761719-4.105469 14.863281 0l7.347656 7.347656c4.105469 4.105469 10.761719 4.105469 14.867188 0l7.347656-7.347656c4.105469-4.105469 10.757812-4.105469 14.863281 0l7.347657 7.351563c4.105468 4.105468 10.761718 4.105468 14.863281 0l7.351562-7.351563c4.105469-4.105469 10.757813-4.101563 14.863281 0l7.347657 7.351563c4.105469 4.101562 10.757812 4.105468 14.863281 0l7.351562-7.351563c4.105469-4.101563 10.757813-4.105469 14.863282 0l7.347656 7.347656c4.105469 4.105469 10.757812 4.105469 14.863281 0l7.347657-7.347656c4.105468-4.105469 10.761718-4.105469 14.863281 0l7.351562 7.347656c.023438.023438.046875.046875.066407.070313 3.0625 3.003906 8.253906.683594 8.257812-3.605469zm0 0"/><path d="m121.765625 203.152344c-3.554687-9.902344-14.464844-15.050782-24.371094-11.496094l-59.285156 21.285156c0-6.328125 0-18.667968 0-25.140625.023437-2.925781 2.757813-5.492187 5.859375-5.492187h1.304688v13.917968l31.988281-11.484374c-.296875-.800782-.582031-1.613282-.867188-2.433594-5.84375-17.023438-8.984375-37.550782-9.070312-38.105469h-23.355469c-24.125 0-43.847656 19.480469-43.96875 43.519531v52.304688c0 13.191406 13.105469 22.382812 25.492188 17.933594l84.777343-30.433594c9.90625-3.558594 15.050781-14.46875 11.496094-24.375zm0 0"/></svg>